<?xml version="1.0" standalone="no"?>
<!DOCTYPE svg PUBLIC "-//W3C//DTD SVG 20010904//EN"
 "http://www.w3.org/TR/2001/REC-SVG-20010904/DTD/svg10.dtd">
<svg version="1.0" xmlns="http://www.w3.org/2000/svg"
 width="512.000000pt" height="512.000000pt" viewBox="0 0 512.000000 512.000000"
 preserveAspectRatio="xMidYMid meet">

<g transform="translate(0.000000,512.000000) scale(0.100000,-0.100000)"
fill="#000000" stroke="none">
<path d="M1641 3824 c-169 -45 -301 -180 -346 -351 -22 -86 -22 -1740 0 -1826
45 -173 178 -307 350 -352 89 -23 1741 -23 1830 0 172 45 305 179 350 352 23
87 22 1741 0 1828 -45 172 -179 305 -352 350 -84 22 -1750 21 -1832 -1z m1805
-330 c15 -11 37 -33 48 -48 21 -27 21 -34 21 -886 0 -852 0 -859 -21 -886 -11
-15 -33 -37 -48 -48 -27 -21 -34 -21 -886 -21 -852 0 -859 0 -886 21 -15 11
-37 33 -48 48 -21 27 -21 37 -24 859 -2 458 0 846 3 864 7 40 49 91 90 109 24
11 188 13 877 11 838 -2 847 -2 874 -23z"/>
<path d="M1941 3170 c-18 -4 -45 -17 -60 -27 -31 -23 -71 -97 -71 -132 0 -47
39 -110 86 -137 39 -23 53 -26 109 -22 72 4 105 23 143 78 49 72 16 182 -68
225 -35 18 -99 25 -139 15z"/>
<path d="M1920 2768 c-18 -13 -43 -36 -54 -51 -20 -27 -21 -40 -21 -342 0
-302 1 -315 21 -342 73 -98 195 -98 268 0 20 27 21 40 21 342 0 302 -1 315
-21 342 -35 48 -82 73 -134 73 -32 0 -57 -7 -80 -22z"/>
<path d="M2503 2779 c-43 -12 -91 -62 -98 -102 -3 -18 -5 -163 -3 -324 3 -276
4 -293 24 -319 33 -45 70 -67 121 -71 65 -5 120 26 151 87 21 42 22 56 22 267
l0 222 38 10 c109 27 139 21 179 -38 22 -32 23 -43 23 -230 0 -185 2 -198 23
-236 35 -62 81 -88 147 -83 67 5 102 27 131 85 20 40 20 55 16 290 -4 283 -9
304 -77 375 -59 61 -129 83 -244 75 -88 -5 -147 -24 -214 -69 -24 -15 -46 -28
-50 -28 -4 0 -15 14 -24 30 -10 18 -36 39 -60 50 -47 22 -58 22 -105 9z"/>
</g>
</svg>
